<?xml version="1.0" standalone="no"?><!DOCTYPE svg PUBLIC "-//W3C//DTD SVG 1.1//EN" "http://www.w3.org/Graphics/SVG/1.1/DTD/svg11.dtd"><svg t="1544510689567" class="icon" style="" viewBox="0 0 1024 1024" version="1.1" xmlns="http://www.w3.org/2000/svg" p-id="987" xmlns:xlink="http://www.w3.org/1999/xlink" width="200" height="200"><defs><style type="text/css"></style></defs><path d="M748.171636 0H279.365818C232.727273 0 194.792727 41.611636 194.792727 92.811636v838.376728C194.792727 982.434909 232.727273 1024 279.365818 1024h468.712727c46.685091 0 84.573091-41.565091 84.573091-92.811636V92.811636C832.791273 41.611636 794.856727 0 748.171636 0z m29.928728 931.281455c0 18.199273-13.405091 32.861091-29.928728 32.86109H279.365818c-16.523636 0-29.928727-14.661818-29.928727-32.86109V92.811636c0-18.059636 13.405091-32.814545 29.928727-32.814545h468.712727c16.523636 0 29.928727 14.754909 29.928728 32.814545v838.469819h0.093091z" p-id="988" fill="#00B35D"></path><path d="M598.946909 137.867636H425.146182a22.248727 22.248727 0 0 0-22.202182 22.155637v6.749091c0 12.194909 9.960727 22.155636 22.202182 22.155636h173.800727a22.248727 22.248727 0 0 0 22.202182-22.155636v-6.749091a22.295273 22.295273 0 0 0-22.202182-22.155637z" p-id="989" fill="#00B35D"></path><path d="M512.046545 830.789818m-46.452363 0a46.452364 46.452364 0 1 0 92.904727 0 46.452364 46.452364 0 1 0-92.904727 0Z" p-id="990" fill="#00B35D"></path></svg>