<?xml version="1.0" standalone="no"?><!DOCTYPE svg PUBLIC "-//W3C//DTD SVG 1.1//EN" "http://www.w3.org/Graphics/SVG/1.1/DTD/svg11.dtd"><svg t="1548137638587" class="icon" style="" viewBox="0 0 1024 1024" version="1.1" xmlns="http://www.w3.org/2000/svg" p-id="3186" xmlns:xlink="http://www.w3.org/1999/xlink" width="200" height="200"><defs><style type="text/css"></style></defs><path d="M629.803886 295.263086a63.253943 63.253943 0 0 0-4.359315-14.043429l80.983772-131.8912a59.011657 59.011657 0 0 0 1.287314-59.4944 58.602057 58.602057 0 0 0-51.082971-30.090971l-289.236115-0.146286a58.514286 58.514286 0 0 0-49.824914 89.219657l80.9984 132.4032c-1.916343 4.534857-3.525486 9.201371-4.359314 14.058057L309.716114 789.211429c-3.774171 21.942857 5.251657 45.173029 23.259429 58.2656l144.618057 105.647542c10.254629 7.460571 22.337829 11.454171 34.4064 11.454172s24.137143-3.613257 34.4064-11.073829L691.024457 848.457143a58.514286 58.514286 0 0 0 23.274057-57.212343l-84.494628-495.981714z m26.814171-175.645257l-76.053943 123.860114a48.859429 48.859429 0 0 0-8.426057-0.906972h-120.246857c-2.8672 0-5.646629 0.4096-8.3968 0.892343l-76.097829-124.372114 289.221486 0.526629z m-145.525028 784.969142l-144.149943-108.353828 82.461257-480.6656c0.833829 0.029257 1.6384 0.175543 2.472228 0.175543h118.974172l83.953371 481.9968-143.711085 106.847085z" fill="" p-id="3187"></path><path d="M468.962743 432.581486a14.570057 14.570057 0 0 0-16.896 11.936914l-37.536914 218.492343a14.599314 14.599314 0 0 0 14.423771 17.1008 14.628571 14.628571 0 0 0 14.394514-12.156343l37.536915-218.492343a14.628571 14.628571 0 0 0-11.922286-16.881371zM419.664457 719.418514a14.584686 14.584686 0 0 0-16.881371 11.936915l-5.968457 34.757485a14.613943 14.613943 0 1 0 28.832914 4.944457l5.968457-34.757485a14.599314 14.599314 0 0 0-11.951543-16.881372z" fill="" p-id="3188"></path></svg>