<?xml version="1.0" standalone="no"?><!DOCTYPE svg PUBLIC "-//W3C//DTD SVG 1.1//EN" "http://www.w3.org/Graphics/SVG/1.1/DTD/svg11.dtd"><svg t="1546394267722" class="icon" style="" viewBox="0 0 1138 1024" version="1.1" xmlns="http://www.w3.org/2000/svg" p-id="2047" xmlns:xlink="http://www.w3.org/1999/xlink" width="222.265625" height="200"><defs><style type="text/css"></style></defs><path d="M1081.790381 1023.971532H56.936336a56.936336 56.936336 0 0 1-56.936336-56.936336v-284.681679h113.872672v227.745343h910.981373v-227.745343h113.872672v284.681679a56.936336 56.936336 0 0 1-56.936336 56.936336z m-187.491354-723.49002l-284.681679-284.681679a57.192549 57.192549 0 0 0-80.621852 0l-284.681679 284.681679a56.936336 56.936336 0 0 0 80.507979 80.507979L512.427023 193.498137v488.85538a56.936336 56.936336 0 0 0 113.872671 0V193.498137l187.491354 187.491354a56.936336 56.936336 0 1 0 80.507979-80.507979z" fill="#54626C" p-id="2048"></path></svg>